<?xml version="1.0" encoding="UTF-8"?>
<svg id="Layer_5" data-name="Layer 5" xmlns="http://www.w3.org/2000/svg" viewBox="0 0 1080 1080">
  <path d="m163.13,379.45c76-162.61,304.9-205.49,420.77-61.74-37.16,17.2-64.87,35.08-86.91,53.36-6.68-8.23-14.62-15.41-23.31-21.53-81.82-58.08-206.69-.29-240.29,77.8-8.78-12.3-42.64-35.47-70.26-47.89h0Z" fill="#6d6e6e"/>
  <path d="m925.6,674.73c-9.9,10.19-20.63,19.7-32.21,28.24l-4.69,105.22-72.37-25.1c-148.68-51.69-321.72-15.01-478.73-5.84-67.49,3.93-130.28-17.81-177.11-55.97-46.83-38.17-77.71-92.75-81.32-154.64-2.56-43.94,9-85.77,31.06-122.02,10.82-17.4,23.57-33.41,38.86-47.6,74.14,36.07,94.83,40.78,60.26,97.74-11.78,19.17-18,41.71-16.63,65.26,1.96,33.41,18.45,62.75,43.58,83.21l.55.45c40.94,38.51,104.02,32.14,165.36,24.87,169-19.7,289.01-21.28,423.02,41.11l3.3-89.86c87.39-60.76,66.34-167.2,2.92-218.41-47.09-37.93-117.95-45.61-185.39,18.93-26.54,25.18-45.8,63.25-66.86,98.24-35.8,58.75-76.98,108.93-168.95,75.62,83.9-119.2,119.72-311.72,317.37-323.23,71.52-4.17,137.86,18.57,187.54,58.77,49.39,40.49,81.8,98.21,85.63,163.76,2.01,34.63-4.07,68.25-17.08,99.07-13.26,30.82-33.17,58.85-58.11,82.2h0Z" fill="#4366b0"/>
  <g>
    <path d="m345.82,418.11c-44.11,0-79.87,30.77-79.87,68.72,0,19.56,9.49,37.2,24.73,49.72-.19,5.97-2.28,11.87-5.92,16.61,7.06-.28,13.98-3.09,19.29-7.74,12.15,6.43,26.46,10.13,41.76,10.13,44.11,0,79.87-30.77,79.87-68.72s-35.76-68.72-79.87-68.72Zm49.64,102.02c-2.94,3.24-7.14,5.07-11.52,5.07h-76.25c-4.38,0-8.57-1.82-11.52-5.07-8.33-9.18-13.3-20.74-13.3-33.3s4.97-24.12,13.3-33.3c2.94-3.24,7.14-5.07,11.52-5.07h76.24c4.43,0,8.65,1.89,11.62,5.18,8.27,9.17,13.2,20.68,13.2,33.19s-4.97,24.12-13.3,33.3Z" fill="#6d6e6e"/>
    <path d="m262.15,486.83c0,9.43,2.04,18.57,6.08,27.2-10.78-3.55-18.63-10.56-18.63-27.2,0-15.78,7.85-23.66,18.63-27.2-4.04,8.64-6.08,17.79-6.08,27.2Z" fill="#6d6e6e"/>
    <path d="m258.91,439.22v20.6c-2.8,1.81-5.17,3.98-7.08,6.52-.02.02-.03.04-.05.07v-27.19c0-1.97,1.6-3.56,3.56-3.56s3.57,1.6,3.57,3.56Z" fill="#6d6e6e"/>
    <path d="m429.49,486.83c0,9.43-2.04,18.57-6.08,27.2,10.78-3.55,18.63-10.56,18.63-27.2,0-15.78-7.85-23.66-18.63-27.2,4.04,8.64,6.08,17.79,6.08,27.2Z" fill="#6d6e6e"/>
    <path d="m432.72,439.22v20.6c2.8,1.81,5.17,3.98,7.08,6.52.02.02.03.04.05.07v-27.19c0-1.97-1.6-3.56-3.56-3.56s-3.57,1.6-3.57,3.56Z" fill="#6d6e6e"/>
    <g>
      <g>
        <path d="m328.85,484.7c-2.32,3.57-5.67,0-12.66,0s-10.34,3.57-12.66,0c-2.25-3.46,3.95-11.99,12.66-11.99s14.91,8.53,12.66,11.99Z" fill="#6d6e6e"/>
        <path d="m388.11,484.7c-2.32,3.57-5.67,0-12.66,0s-10.34,3.57-12.66,0c-2.25-3.46,3.95-11.99,12.66-11.99s14.91,8.53,12.66,11.99Z" fill="#6d6e6e"/>
      </g>
      <path d="m345.82,500.95c-4.88,0-8.1-3.87-8.24-4.04-.73-.89-.6-2.21.29-2.94.89-.73,2.21-.6,2.94.29.01.02,2.13,2.5,5,2.5s4.99-2.49,5.01-2.51c.73-.89,2.04-1.02,2.93-.29.89.73,1.02,2.05.29,2.94-.13.16-3.36,4.04-8.24,4.04Z" fill="#6d6e6e"/>
    </g>
  </g>
  <circle cx="663.38" cy="528.4" r="12.36" fill="#4366b0"/>
  <circle cx="736.71" cy="528.4" r="12.36" fill="#4366b0"/>
  <circle cx="810.03" cy="528.4" r="12.36" fill="#4366b0"/>
</svg>